<?xml version="1.0" encoding="UTF-8" standalone="no"?>
<svg width="512" height="512" viewBox="0 0 512 512" fill="none" xmlns="http://www.w3.org/2000/svg">
  <!-- Quantum orbital rings -->
  <circle cx="256" cy="256" r="200" stroke="#00f0ff" stroke-width="4" fill="none" opacity="0.3">
    <animate attributeName="opacity" values="0.3;0.7;0.3" dur="6s" repeatCount="indefinite" />
  </circle>
  <ellipse cx="256" cy="256" rx="180" ry="140" stroke="#0080ff" stroke-width="4" fill="none" opacity="0.6" transform="rotate(45 256 256)">
    <animate attributeName="transform" values="rotate(0 256 256);rotate(360 256 256)" dur="12s" repeatCount="indefinite" />
  </ellipse>
  <ellipse cx="256" cy="256" rx="150" ry="100" stroke="#7040ff" stroke-width="4" fill="none" opacity="0.5" transform="rotate(-45 256 256)">
    <animate attributeName="transform" values="rotate(0 256 256);rotate(-360 256 256)" dur="10s" repeatCount="indefinite" />
  </ellipse>
  
  <!-- Center atom core -->
  <circle cx="256" cy="256" r="50" fill="url(#gradient1)" />
  
  <!-- Tool elements -->
  <rect x="236" y="360" width="40" height="40" rx="5" fill="#00f0ff" />
  <rect x="226" y="350" width="60" height="8" rx="4" fill="#00f0ff" />
  <rect x="226" y="402" width="60" height="8" rx="4" fill="#00f0ff" />
  <rect x="206" y="370" width="8" height="60" rx="4" transform="rotate(-90 206 370)" fill="#00f0ff" />
  <rect x="206" y="390" width="8" height="60" rx="4" transform="rotate(-90 206 390)" fill="#00f0ff" />
  
  <!-- Orbiting quantum bits -->
  <circle cx="256" cy="116" r="12" fill="#00f0ff">
    <animate attributeName="cx" values="256;396;256;116;256" dur="8s" repeatCount="indefinite" />
    <animate attributeName="cy" values="116;256;396;256;116" dur="8s" repeatCount="indefinite" />
  </circle>
  <circle cx="396" cy="256" r="8" fill="#0080ff">
    <animate attributeName="cx" values="396;256;116;256;396" dur="6s" repeatCount="indefinite" />
    <animate attributeName="cy" values="256;396;256;116;256" dur="6s" repeatCount="indefinite" />
  </circle>
  <circle cx="256" cy="396" r="10" fill="#7040ff">
    <animate attributeName="cx" values="256;116;256;396;256" dur="10s" repeatCount="indefinite" />
    <animate attributeName="cy" values="396;256;116;256;396" dur="10s" repeatCount="indefinite" />
  </circle>
  
  <!-- Gradients -->
  <defs>
    <linearGradient id="gradient1" x1="0%" y1="0%" x2="100%" y2="100%">
      <stop offset="0%" stop-color="#00f0ff" />
      <stop offset="50%" stop-color="#0080ff" />
      <stop offset="100%" stop-color="#7040ff" />
    </linearGradient>
  </defs>
</svg>
